<svg width="232" height="72" viewBox="0 0 232 72" xmlns="http://www.w3.org/2000/svg"><g id="svgGroup" stroke-linecap="round" fill-rule="evenodd" font-size="9pt" stroke="#000" stroke-width="0.25mm" fill="black" style="stroke:#000;stroke-width:0.25mm;fill:black"><path d="M 46.4 2.2 L 45.9 4.1 A 62.416 62.416 0 0 0 41.449 2.998 A 55.648 55.648 0 0 0 40.45 2.8 Q 37.8 2.3 35.05 2.1 Q 32.3 1.9 29.1 1.9 Q 22.7 1.9 17.65 3.8 Q 12.6 5.7 9.15 9.8 Q 6.159 13.356 4.37 18.941 A 41.454 41.454 0 0 0 3.85 20.7 A 47.445 47.445 0 0 0 2.653 26.737 Q 2 31.522 2 37.4 A 80.234 80.234 0 0 0 2.24 43.77 Q 2.638 48.763 3.7 52.7 Q 5.211 58.299 8.064 61.923 A 18.182 18.182 0 0 0 8.8 62.8 Q 12.2 66.6 17.05 68.35 A 28.991 28.991 0 0 0 23.25 69.811 A 37.664 37.664 0 0 0 28 70.1 A 79.236 79.236 0 0 0 35.754 69.706 A 91.409 91.409 0 0 0 38.45 69.4 Q 43.9 68.7 48 67.4 L 48.5 69.3 A 42.201 42.201 0 0 1 45.107 70.22 A 48.999 48.999 0 0 1 43.8 70.5 Q 41.3 71 38.65 71.35 Q 36 71.7 33.3 71.85 Q 30.6 72 28 72 A 42.5 42.5 0 0 1 22.06 71.605 A 31.036 31.036 0 0 1 16.15 70.2 Q 11 68.4 7.35 64.35 A 22.32 22.32 0 0 1 3.98 59.327 Q 2.718 56.794 1.85 53.7 Q 0.413 48.572 0.092 41.573 A 91.275 91.275 0 0 1 0 37.4 Q 0 24 3.35 15.8 A 28.337 28.337 0 0 1 6.738 9.664 A 21.417 21.417 0 0 1 13.2 3.8 Q 19.523 0.104 28.589 0.003 A 45.921 45.921 0 0 1 29.1 0 A 106.051 106.051 0 0 1 33.186 0.077 A 96.368 96.368 0 0 1 33.75 0.1 Q 36 0.2 38.05 0.45 Q 40.1 0.7 42.15 1.15 Q 44.2 1.6 46.4 2.2 Z M 232 71 L 194.5 71 L 194.5 1 L 196.5 1 L 196.5 69.1 L 232 69.1 L 232 71 Z M 83.6 72 Q 79.2 72 75.05 71 Q 70.9 70 67.25 67.6 A 21.709 21.709 0 0 1 62.469 63.272 A 26.699 26.699 0 0 1 60.85 61.1 A 26.875 26.875 0 0 1 58.468 56.647 Q 57.35 54.021 56.55 50.85 A 46.886 46.886 0 0 1 55.505 45.113 Q 55.142 42.16 55.04 38.796 A 89.062 89.062 0 0 1 55 36.1 Q 55 27.3 56.55 21.05 Q 57.87 15.728 60.06 11.965 A 23.394 23.394 0 0 1 60.85 10.7 Q 63.6 6.6 67.25 4.25 Q 70.9 1.9 75.05 0.95 Q 79.2 0 83.6 0 Q 88 0 92.2 0.95 Q 96.4 1.9 100.05 4.2 A 20.702 20.702 0 0 1 104.571 8.103 A 26.092 26.092 0 0 1 106.5 10.6 Q 109.075 14.37 110.635 19.915 A 47.051 47.051 0 0 1 110.9 20.9 Q 112.5 27.1 112.5 35.9 Q 112.5 43.067 111.472 48.576 A 43.737 43.737 0 0 1 110.95 51 A 41.829 41.829 0 0 1 109.493 55.756 Q 108.283 58.966 106.65 61.4 Q 103.9 65.5 100.25 67.8 Q 96.6 70.1 92.35 71.05 Q 88.1 72 83.6 72 Z M 151.9 72 Q 147.5 72 143.35 71 Q 139.2 70 135.55 67.6 A 21.709 21.709 0 0 1 130.769 63.272 A 26.699 26.699 0 0 1 129.15 61.1 A 26.875 26.875 0 0 1 126.768 56.647 Q 125.65 54.021 124.85 50.85 A 46.886 46.886 0 0 1 123.805 45.113 Q 123.442 42.16 123.34 38.796 A 89.062 89.062 0 0 1 123.3 36.1 Q 123.3 27.3 124.85 21.05 Q 126.17 15.728 128.36 11.965 A 23.394 23.394 0 0 1 129.15 10.7 Q 131.9 6.6 135.55 4.25 Q 139.2 1.9 143.35 0.95 Q 147.5 0 151.9 0 Q 156.3 0 160.5 0.95 Q 164.7 1.9 168.35 4.2 A 20.702 20.702 0 0 1 172.871 8.103 A 26.092 26.092 0 0 1 174.8 10.6 Q 177.375 14.37 178.935 19.915 A 47.051 47.051 0 0 1 179.2 20.9 Q 180.8 27.1 180.8 35.9 Q 180.8 43.067 179.772 48.576 A 43.737 43.737 0 0 1 179.25 51 A 41.829 41.829 0 0 1 177.793 55.756 Q 176.583 58.966 174.95 61.4 Q 172.2 65.5 168.55 67.8 Q 164.9 70.1 160.65 71.05 Q 156.4 72 151.9 72 Z M 83.6 70.1 Q 87.6 70.1 91.5 69.2 Q 95.4 68.3 98.8 66.1 Q 102.2 63.9 104.8 60.05 A 24.983 24.983 0 0 0 106.996 55.99 Q 107.879 53.954 108.564 51.55 A 45.068 45.068 0 0 0 108.9 50.3 Q 110.4 44.4 110.4 36.1 A 79.588 79.588 0 0 0 110.19 30.145 Q 109.959 27.076 109.476 24.42 A 40.753 40.753 0 0 0 108.9 21.75 Q 107.623 16.683 105.548 13.139 A 21.858 21.858 0 0 0 104.8 11.95 A 23.412 23.412 0 0 0 101.717 8.233 A 19.039 19.039 0 0 0 98.8 5.9 Q 95.4 3.7 91.5 2.8 Q 87.6 1.9 83.6 1.9 Q 79.6 1.9 75.75 2.8 Q 71.9 3.7 68.5 5.9 A 19.424 19.424 0 0 0 64.382 9.52 A 24.656 24.656 0 0 0 62.5 12 A 25.102 25.102 0 0 0 60.316 16.096 Q 59.426 18.184 58.751 20.645 A 44.45 44.45 0 0 0 58.45 21.8 A 45.312 45.312 0 0 0 57.512 27.006 Q 57.192 29.573 57.072 32.483 A 88.003 88.003 0 0 0 57 36.1 Q 57 44.3 58.45 50.1 A 38.218 38.218 0 0 0 59.939 54.811 Q 60.883 57.213 62.096 59.171 A 22.389 22.389 0 0 0 62.5 59.8 A 23.995 23.995 0 0 0 65.489 63.478 A 19.421 19.421 0 0 0 68.5 65.95 Q 71.9 68.2 75.75 69.15 Q 79.6 70.1 83.6 70.1 Z M 151.9 70.1 Q 155.9 70.1 159.8 69.2 Q 163.7 68.3 167.1 66.1 Q 170.5 63.9 173.1 60.05 A 24.983 24.983 0 0 0 175.296 55.99 Q 176.179 53.954 176.864 51.55 A 45.068 45.068 0 0 0 177.2 50.3 Q 178.7 44.4 178.7 36.1 A 79.588 79.588 0 0 0 178.49 30.145 Q 178.259 27.076 177.776 24.42 A 40.753 40.753 0 0 0 177.2 21.75 Q 175.923 16.683 173.848 13.139 A 21.858 21.858 0 0 0 173.1 11.95 A 23.412 23.412 0 0 0 170.017 8.233 A 19.039 19.039 0 0 0 167.1 5.9 Q 163.7 3.7 159.8 2.8 Q 155.9 1.9 151.9 1.9 Q 147.9 1.9 144.05 2.8 Q 140.2 3.7 136.8 5.9 A 19.424 19.424 0 0 0 132.682 9.52 A 24.656 24.656 0 0 0 130.8 12 A 25.102 25.102 0 0 0 128.616 16.096 Q 127.726 18.184 127.051 20.645 A 44.45 44.45 0 0 0 126.75 21.8 A 45.312 45.312 0 0 0 125.812 27.006 Q 125.492 29.573 125.372 32.483 A 88.003 88.003 0 0 0 125.3 36.1 Q 125.3 44.3 126.75 50.1 A 38.218 38.218 0 0 0 128.239 54.811 Q 129.183 57.213 130.396 59.171 A 22.389 22.389 0 0 0 130.8 59.8 A 23.995 23.995 0 0 0 133.789 63.478 A 19.421 19.421 0 0 0 136.8 65.95 Q 140.2 68.2 144.05 69.15 Q 147.9 70.1 151.9 70.1 Z" vector-effect="non-scaling-stroke"/></g></svg>